<mxfile host="65bd71144e">
    <diagram id="H9FApONxnOYapnm5ptal" name="Enemy">
        <mxGraphModel dx="1606" dy="553" grid="1" gridSize="10" guides="1" tooltips="1" connect="1" arrows="1" fold="1" page="0" pageScale="1" pageWidth="850" pageHeight="1100" math="0" shadow="0">
            <root>
                <mxCell id="0"/>
                <mxCell id="1" parent="0"/>
                <mxCell id="8" value="" style="ellipse;whiteSpace=wrap;html=1;aspect=fixed;" parent="1" vertex="1">
                    <mxGeometry x="315" y="260" width="140" height="140" as="geometry"/>
                </mxCell>
                <mxCell id="6" value="" style="triangle;whiteSpace=wrap;html=1;rotation=90;" parent="1" vertex="1">
                    <mxGeometry x="267.5" y="120" width="235" height="180" as="geometry"/>
                </mxCell>
                <mxCell id="3" value="Enemy&lt;br&gt;" style="shape=umlActor;verticalLabelPosition=bottom;verticalAlign=top;html=1;outlineConnect=0;" parent="1" vertex="1">
                    <mxGeometry x="345" y="250" width="80" height="140" as="geometry"/>
                </mxCell>
                <mxCell id="9" value="" style="triangle;whiteSpace=wrap;html=1;rotation=90;" parent="1" vertex="1">
                    <mxGeometry x="890" y="120" width="235" height="180" as="geometry"/>
                </mxCell>
                <mxCell id="10" value="" style="triangle;whiteSpace=wrap;html=1;rotation=135;" parent="1" vertex="1">
                    <mxGeometry x="974" y="154" width="235" height="181" as="geometry"/>
                </mxCell>
                <mxCell id="11" value="&lt;font style=&quot;font-size: 27px;&quot;&gt;Shifting 45ยบ&lt;/font&gt;" style="text;html=1;align=center;verticalAlign=middle;resizable=0;points=[];autosize=1;strokeColor=none;fillColor=none;strokeWidth=1;" parent="1" vertex="1">
                    <mxGeometry x="960" y="40" width="160" height="50" as="geometry"/>
                </mxCell>
                <mxCell id="12" value="Searching Methods" style="shape=singleArrow;whiteSpace=wrap;html=1;arrowWidth=0.4;arrowSize=0.4;strokeWidth=1;fontSize=27;" parent="1" vertex="1">
                    <mxGeometry x="550" y="154" width="253.33" height="190" as="geometry"/>
                </mxCell>
                <mxCell id="13" value="Leaves a Blind Zone" style="shape=callout;whiteSpace=wrap;html=1;perimeter=calloutPerimeter;strokeWidth=1;fontSize=27;position2=0.17;" parent="1" vertex="1">
                    <mxGeometry x="1270" y="30" width="180" height="124" as="geometry"/>
                </mxCell>
                <mxCell id="14" value="" style="triangle;whiteSpace=wrap;html=1;rotation=90;" parent="1" vertex="1">
                    <mxGeometry x="889" y="423" width="235" height="180" as="geometry"/>
                </mxCell>
                <mxCell id="15" value="" style="triangle;whiteSpace=wrap;html=1;rotation=135;" parent="1" vertex="1">
                    <mxGeometry x="973" y="457" width="235" height="181" as="geometry"/>
                </mxCell>
                <mxCell id="16" value="&lt;font style=&quot;font-size: 27px;&quot;&gt;Shifting 15ยบ x3&lt;/font&gt;" style="text;html=1;align=center;verticalAlign=middle;resizable=0;points=[];autosize=1;strokeColor=none;fillColor=none;strokeWidth=1;" parent="1" vertex="1">
                    <mxGeometry x="939" y="337" width="200" height="50" as="geometry"/>
                </mxCell>
                <mxCell id="17" value="Less of Blind Spot - Will require a slower turn" style="shape=callout;whiteSpace=wrap;html=1;perimeter=calloutPerimeter;strokeWidth=1;fontSize=27;position2=0.17;" parent="1" vertex="1">
                    <mxGeometry x="1269" y="327" width="191" height="173" as="geometry"/>
                </mxCell>
                <mxCell id="19" value="" style="triangle;whiteSpace=wrap;html=1;rotation=115;" parent="1" vertex="1">
                    <mxGeometry x="938" y="433" width="235" height="180" as="geometry"/>
                </mxCell>
                <mxCell id="21" value="" style="triangle;whiteSpace=wrap;html=1;rotation=130;" parent="1" vertex="1">
                    <mxGeometry x="965.1229703909969" y="451.2428411670553" width="235" height="180" as="geometry"/>
                </mxCell>
                <mxCell id="22" value="Check if pygame has a rotate feature" style="shape=note;whiteSpace=wrap;html=1;backgroundOutline=1;darkOpacity=0.05;strokeWidth=1;fontSize=27;" parent="1" vertex="1">
                    <mxGeometry x="570" y="380" width="160" height="200" as="geometry"/>
                </mxCell>
                <mxCell id="24" value="" style="ellipse;whiteSpace=wrap;html=1;aspect=fixed;" parent="1" vertex="1">
                    <mxGeometry x="295" y="962" width="140" height="140" as="geometry"/>
                </mxCell>
                <mxCell id="25" value="" style="triangle;whiteSpace=wrap;html=1;rotation=90;" parent="1" vertex="1">
                    <mxGeometry x="247.5" y="822" width="235" height="180" as="geometry"/>
                </mxCell>
                <mxCell id="26" value="Enemy&lt;br&gt;" style="shape=umlActor;verticalLabelPosition=bottom;verticalAlign=top;html=1;outlineConnect=0;" parent="1" vertex="1">
                    <mxGeometry x="325" y="952" width="80" height="140" as="geometry"/>
                </mxCell>
                <mxCell id="27" value="Chasing Methods" style="shape=singleArrow;whiteSpace=wrap;html=1;arrowWidth=0.4;arrowSize=0.4;strokeWidth=1;fontSize=27;" parent="1" vertex="1">
                    <mxGeometry x="530" y="856" width="253.33" height="190" as="geometry"/>
                </mxCell>
                <mxCell id="32" value="&lt;ul&gt;&lt;li&gt;Cone Fixates on Player&lt;/li&gt;&lt;li&gt;Always goes to where it last saw player&lt;/li&gt;&lt;li&gt;If it goes to last seen area and doesn't find player then enters search mode again&lt;/li&gt;&lt;/ul&gt;" style="shape=internalStorage;whiteSpace=wrap;html=1;backgroundOutline=1;fontSize=24;dx=0;dy=0;" parent="1" vertex="1">
                    <mxGeometry x="820" y="838" width="440" height="222" as="geometry"/>
                </mxCell>
                <mxCell id="36" value="" style="shape=flexArrow;endArrow=classic;html=1;fontSize=29;width=71.66666666666667;endSize=13.466666666666667;endWidth=63.61111111111111;" parent="1" edge="1">
                    <mxGeometry width="50" height="50" relative="1" as="geometry">
                        <mxPoint x="248" y="322" as="sourcePoint"/>
                        <mxPoint x="-42.5" y="325" as="targetPoint"/>
                        <Array as="points"/>
                    </mxGeometry>
                </mxCell>
                <mxCell id="37" value="Spotting" style="edgeLabel;html=1;align=center;verticalAlign=middle;resizable=0;points=[];fontSize=29;" parent="36" vertex="1" connectable="0">
                    <mxGeometry x="0.2019" y="-7" relative="1" as="geometry">
                        <mxPoint x="48" y="3" as="offset"/>
                    </mxGeometry>
                </mxCell>
                <mxCell id="38" value="" style="shape=flexArrow;endArrow=classic;html=1;fontSize=29;width=71.66666666666667;endSize=13.466666666666667;endWidth=63.61111111111111;" parent="1" edge="1">
                    <mxGeometry width="50" height="50" relative="1" as="geometry">
                        <mxPoint x="258" y="860" as="sourcePoint"/>
                        <mxPoint x="-50" y="640" as="targetPoint"/>
                        <Array as="points"/>
                    </mxGeometry>
                </mxCell>
                <mxCell id="39" value="Spotting" style="edgeLabel;html=1;align=center;verticalAlign=middle;resizable=0;points=[];fontSize=29;rotation=36.5;" parent="38" vertex="1" connectable="0">
                    <mxGeometry x="0.2019" y="-7" relative="1" as="geometry">
                        <mxPoint x="45" y="41" as="offset"/>
                    </mxGeometry>
                </mxCell>
                <mxCell id="41" value="" style="shape=stencil(fZbdcgIhDIWfZm8zQAg/17Z9j85U606tdqz9e/tmZ0c0uJ47xP0I5JwEBl59bp8/1kNwn6fj4W39M76ctgM/DCGM++36OJ50NPDjwKvN4bh+PR6+9i/z74/n6ctp9H74nlb4nbmSKZeJCu5vngmZ6jzzNAO7cX8FVKEsBuBKrgKg9oAE8gkCbLeUhEoEQKSUDZDLeWYRKIl8MEDRmHwfyBrBG6Amyu4+kDxxMoB3jhwgYu7TVAsVkFcWCs4CTBEoF4RctKeOxHIf8IXYpikHikAIf+MNUW94AGSSaoAoFIE3AlOyeWU+p2E5S9yfQZcQILVuQOwZdJNoS9Ls3wA5u2XZTIHECqeJ9kDpSaauRiNVcAY1QhdBzeLBli5WazpkSsBLV25uRaqWRyFawTQzRRIQYirJzq5atkBqLfouwqUxLBepthWb10vrWZY6UOAeyKCCtDV625mm9gmUC4Wc3VLJMMIE1BsA2FW9JraVlQB7n3c9oMKhCLEvIM1zBPZ25/umNQ1tVEC2G+fFCC8g398O2hNQuQlVu752DBfA+q0ptnqO5JFmeuIuo9DY7KjY71UxdJV4EntifPWorW++R/dC4t7V3DlIB5cHx2bc7eb3yvX//QNFp+bHDT/+Aw==);lineShape=1;fontSize=29;" parent="1" vertex="1">
                    <mxGeometry x="-563.6946166500443" y="236.5005681063983" width="8.49552685839192" height="8.482247666104906" as="geometry"/>
                </mxCell>
                <mxCell id="43" value="" style="shape=stencil(lVrLchw3DPyavbJIgs+z4/yHqyxHW1Eklywn8d8bzIbjYWOnx76tVo0Z4t0A9yLvvjx++Pxwif7L2+vLnw//XD++PV7kt0uM1+fHh9frm366yPuLvPv08vrwx+vL1+ePt78/fxjI8emvl7/HE/69yZXmYhhS0X+7feOdtP+++P2Gf7o+7/A1uCKAT5Xgk0sJ8YXgq/Md8Zngu6vm+XKMb/HOeSLBJ9eNvp7g9fwF7Un07du/f+Ajw0fXI+ADsX/PzqO+/xv4Pl7PnxFP9O3dZTxPJ/YMfnveFIiuEQfrC/qKz/OER/jaFrxqFLgCdcHrA7jCcTVQEBdIxPXm+uqBUF1gGjRX1hSIwWWSkyqQVpVjcTFRAQg68a4Rr6lAXN8g6gUWdm0eYBNoM1EPBValUzgTkPVIKfHIbujopH5gkdGwtKTuhIWGOm49Ug7cD8XEdnSZCeQZars3VKaDPq+ggBArte5KRQFWsJvqYN6QSLQ2cT0YAXYkrSgdBTLxQ22umSOxBNImkteczkJ1sF0nZ2rWaqtYnd8cKe3Xulr8tNuRQFjNWtJMqSOBuB6p6JGY47RVrcGnZICV7ra17k0gu8Z1yFC7NRxZd/aurlbS6PJcoK2x1DL3Q5h1bhPQwkNSVAWgP4wWz/wQ0KxdzvKhQsfKrhCzaj5AaIzCw6I1Yw9VWhCIWWs0SlfqBw215PFIjTSUErChDAHiuJwwvIcAcVwqs+/vrUQEpCNVPbGShBn9OwEhCaRURxIKZOK4QQbNkViKhoJdVJsY00HJDiTQYB/sDQEb+yBErItOcrTh9Rs2MUx6t8ML4WMJm7TiCzlPmB15o2+eU2JTuTU9G3Ga1mFBPCvcHiewnmgmhDkg7PDUY/NpO3wkfSFOfrDDCylHghVV8Yz0iCHoiecl8gu1J2vmCScezXtP8DK75A7PJgaZDG2Xk5GUOpkD4A5fSUpGE9CN1t7ovCCepvydEsGe70386PlJQvpZA/f2Ifb3Jn4K5cBm4Bz+pfkVoOjy+PE4fY34JPnlTfzw+A+z5P9kfkXTKc/yt9n6QPMrRcRXYk+Zo+VP1rdk4lPrJ89fwBc6HvwqPuD8rvhE7J9MvS10ziymvvH4bMZfhdaTYOanXuiOT3s8VpRCB19lEdjCVGUWcjaHOQ1XJoQEk3Ne5VrVRBHtSv1O22ZlTvligSMlurFQRorMJs3l2SHnNZnGMkdZtZhSwUJv8HZ4g8x959FkgORD2xtjZ2YRpAJsIaoCCUJDp0I+3cCU2TgjHQKr0mMGZONQww6lUyY1a0MaPhYG7EgVWbUamvUQFQBWqq70JPjsXn1s/tkSpWDbKWnuko4EAuwTtlH4MJZg69Ioc1eBCLupTHciNWGr1RxkOa0CBdY0Yd6PHB0JPJ0aJSPqB1wq1tNVU0EBIeV+3HAEI8D6ScYESpXfcTQc3ocA20IaSjgE2J5TsNyrACuVoxsYK9E1fsU9Z+pch+yyoADdBmfcJ5ztmzMWgbONdsbwPtuZF7wMOtvKFxyux96fXU/pkVaziqfD6RBYzap8KJwovVbvQZDZ/UvGbXCoZ2aFFFVCRK+c8lxSbi2L39dkrDJ8M2Xv5IQSbnvnJ2eXBGBSmV3+KJ3x+ogOMPZOVPgdrblzFV7AzJ2u0Appt/cnlMT0TqFrO3vnLbyvmTt1jrd39kJLl9LCZp7Pdq0VKZjQa6xSkdjKHLHu4wsWukg5pOJhyx9p/Ci+IJ4tdCyeX6rZ8wQaP1bfQLmatafn9jH+8pSp2Xjgv5n41d+InOP1w48fpHy6Pj3dfs+y/z/+gEW/uv34Rd5/Bw==);lineShape=1;fontSize=29;" parent="1" vertex="1">
                    <mxGeometry x="-709.3486791543189" y="392.0837881882778" width="232.56075209894104" height="244.749498675466" as="geometry"/>
                </mxCell>
                <mxCell id="44" value="" style="ellipse;whiteSpace=wrap;html=1;aspect=fixed;" vertex="1" parent="1">
                    <mxGeometry x="-582.5" y="230" width="140" height="140" as="geometry"/>
                </mxCell>
                <mxCell id="45" value="" style="triangle;whiteSpace=wrap;html=1;rotation=-30;" vertex="1" parent="1">
                    <mxGeometry x="-730" y="271.24" width="235" height="180" as="geometry"/>
                </mxCell>
                <mxCell id="46" value="Enemy&lt;br&gt;" style="shape=umlActor;verticalLabelPosition=bottom;verticalAlign=top;html=1;outlineConnect=0;" vertex="1" parent="1">
                    <mxGeometry x="-552.5" y="220" width="80" height="140" as="geometry"/>
                </mxCell>
                <mxCell id="42" value="" style="shape=stencil(nVjLbhsxDPwaXwm9JZ7T9D8CxKmNunHgOH38fblYyDG57sjbm72rWYnkkBxqEx/ed09v201w7+fT8fv21/75vNvEL5sQ9q+77Wl/ll+b+LiJDy/H0/bb6fjx+jz/f3uaVk6/fhx/Tl/4PeNKI88TKrg/85PQH3yd1x/2r9frK+Wo1heqGa6vVa33jqqHADaARKVhQNKARs3hI2kTQiRXIaAYH1UK2GjWgOjJRwBolLQNMVELAMAUggY0csCtVQ5QFCCJ0WCHGoizBhRqCQASpaYBTFwAIFPVXso4DlUOoHfIhSKgRpVIa7fmwZEkDtpLJXa+3wawdWuRfEA7cI/rBcCdjjcBTdJFG10jRRDp5qk4DShU0A6BsrZB9owggVqmpHdo4iVADY7EBlAogUhz60XlAuDOrtsApqy9xKE/uQmQKuS9BgiXQOB8sNTgTB7tIClqjpTIg4wLQg1dl8RvKA5TBkdrNKp8uVJiCygo47ytfAJgxCUxMVsbBtTI1XopgTgINUxdkjhkBGBbBBinqHyvGYDUc5RxtTeoC6B1wv+rkHmdD3LIgsp9oKirhneOHOJGtWVjhJCO41YdSpRCCmvMlkYeyhrHSpJGQw4cOr/ocgNy+ELZsEnoB1p7yFaeDAgufTktkhSlUA69Wt+ZpKI23CJJURmQ8h7Y2oAKDbtFRuBSJnEtiySFxfKTnPfW4/9AWJE1RQKzKSy6EFSW1LRfpc2hhHCdald9tIJILyweNGrXzbtTCXgryAZSI9guPdAykZLuuQOxlGyPHqixZLXVQO5lW7cHerLYWWYgWEWSr1LEUm+1vQPJLQQ1Qmwg6r3E08wZeGyQku11MRoMJgIwQmww+gigaacOhqsJsGp8m+ZH0zzxgDjZoPNgMILKa5M4gyHXZ6vc8BQtG5hGiKd0+b6RYR62EF9tJZKggfXTa80jBxN/6pps1qNEE85U+31EoonFdj1UR8neYuD12VnO4fNIHTGqFttbvBUJ2J8l28qI4yUSIdn1UFKsvRUarpcfn1dQL/vDYb7Bun5vr6zk0XzdFR//Ag==);lineShape=1;fontSize=29;" parent="1" vertex="1">
                    <mxGeometry x="-565.2674589890223" y="236.8370040267282" width="13.20025937250007" height="160.74474952080374" as="geometry"/>
                </mxCell>
                <mxCell id="48" value="Actor" style="shape=umlActor;verticalLabelPosition=bottom;verticalAlign=top;html=1;outlineConnect=0;" vertex="1" parent="1">
                    <mxGeometry x="-690" y="344" width="50" height="100" as="geometry"/>
                </mxCell>
                <mxCell id="50" value="" style="shape=flexArrow;endArrow=classic;startArrow=classic;html=1;entryX=0.5;entryY=0.5;entryDx=0;entryDy=0;entryPerimeter=0;" edge="1" parent="1" source="48" target="46">
                    <mxGeometry width="100" height="100" relative="1" as="geometry">
                        <mxPoint x="-650" y="400" as="sourcePoint"/>
                        <mxPoint x="-555.2" y="311.24" as="targetPoint"/>
                    </mxGeometry>
                </mxCell>
                <mxCell id="52" value="&lt;font style=&quot;font-size: 14px;&quot;&gt;If the Cone has the player in it then it will draw a line between player and enemy. If it hits something inbetween then it doesn't see. Circle cone surrounding enemy is hear cone so will work through walls.&lt;/font&gt;" style="text;html=1;align=center;verticalAlign=middle;whiteSpace=wrap;rounded=0;strokeColor=default;" vertex="1" parent="1">
                    <mxGeometry x="-420" y="229.5" width="230" height="170.5" as="geometry"/>
                </mxCell>
            </root>
        </mxGraphModel>
    </diagram>
</mxfile>